<?xml version="1.0" ?>

<!-- Uploaded to: SVG Repo, www.svgrepo.com, Generator: SVG Repo Mixer Tools -->
<svg  width="800px" height="800px" viewBox="0 0 512 512" version="1.1" xml:space="preserve" xmlns="http://www.w3.org/2000/svg" xmlns:xlink="http://www.w3.org/1999/xlink">

<g id="couple-marriage-heart-love-valentine">

<path fill="currentColor" d="M200,328h-16v-28.313c3.77-3.396,6.931-7.348,9.441-11.688H200c13.234,0,24-10.766,24-24c0-10.496-6.562-19.19-16-22.542   V216c0-26.51-21.49-48-48-48h-16c-26.51,0-48,21.49-48,48v25.474c-9.292,3.313-16,12.11-16,22.526c0,13.508,10.997,24,24,24h6.557   c2.51,4.342,5.673,8.294,9.443,11.685V328h-16c-17.68,0-32,14.32-32,32v64c0,8.8,7.2,16,16,16h16v-32c0-4.4,3.6-8,8-8s8,3.6,8,8v32   h64v-32c0-4.4,3.6-8,8-8s8,3.6,8,8v32h16c8.8,0,16-7.2,16-16v-64C232,342.32,217.68,328,200,328z M120,264v-16   c0-16.234,12.148-29.684,27.945-31.75c3.352,7.375,8.742,13.766,15.578,18.379c5.969,4.035,12.75,6.469,19.875,7.184   C183.805,243.82,184,245.871,184,248v16c0,10-4.789,19.574-12.836,25.629C151.048,304.895,120,291.063,120,264z M167.651,309.386   c0.113-0.039,0.236-0.05,0.349-0.089v16.965c-6.635,12.98-25.375,12.961-32,0v-16.965c0.116,0.041,0.243,0.052,0.36,0.092   C146.986,313.038,158.448,312.547,167.651,309.386z M200,272h-0.763c0.995-5.794,0.763-9.542,0.763-16   C210.527,256,210.571,272,200,272z M104,272c-10.527,0-10.571-16,0-16c0,6.474-0.233,10.197,0.763,16H104z M408,328h-16v-28.313   c1.293-1.165,2.509-2.397,3.661-3.688H416c8.836,0,16-7.164,16-16v-40c0-39.765-32.235-72-72-72s-72,32.235-72,72v40   c0,8.836,7.164,16,16,16h20.338c1.152,1.29,2.368,2.521,3.662,3.685V328h-16c-17.68,0-32,14.32-32,32v64c0,8.8,7.2,16,16,16h16v-32   c0-4.4,3.6-8,8-8s8,3.6,8,8v32h64v-32c0-4.4,3.6-8,8-8s8,3.6,8,8v32h16c8.8,0,16-7.2,16-16v-64C440,342.32,425.68,328,408,328z    M349.914,294.318C336.731,290.079,328,277.506,328,264v-16c0-16.234,12.148-29.684,27.945-31.75   c3.352,7.375,8.742,13.766,15.578,18.379c5.969,4.035,12.75,6.469,19.875,7.184C391.805,243.82,392,245.871,392,248v16   c0,10-4.789,19.574-12.836,25.629C370.926,295.881,359.664,297.444,349.914,294.318z M344,309.297   c0.116,0.041,0.243,0.052,0.36,0.092c9.163,3.147,20.73,3.624,31.292-0.003c0.113-0.039,0.236-0.05,0.349-0.089v16.371   c-2.859,4.609-9.727,16.363-16,32.313c-6.273-15.949-13.141-27.703-16-32.313V309.297z M302.081,129.596l-32.5,32.855   c-7.318,7.398-19.204,7.398-26.522,0l-32.5-32.855c-11.85-11.979-13.889-31.229-3.614-44.605   c12.415-16.161,35.529-17.243,49.375-3.245c13.847-13.998,36.961-12.917,49.376,3.245   C315.97,98.366,313.93,117.617,302.081,129.596z"/>

</g>

<g id="Layer_1"/>

</svg>