<svg xmlns="http://www.w3.org/2000/svg" fill="currentColor" viewBox="0 0 576 512"><!--!Font Awesome Free 6.6.0 by @fontawesome - https://fontawesome.com License - https://fontawesome.com/license/free Copyright 2024 Fonticons, Inc.--><path d="M271.1 144.3l54.3 14.3a8.6 8.6 0 0 1 6.6 8.1c0 4.6-4.1 8.4-9.1 8.4h-35.6a30 30 0 0 1 -11.2-2.2c-5.2-2.2-11.3-1.7-15.3 2l-19 17.5a11.7 11.7 0 0 0 -2.3 2.7 11.4 11.4 0 0 0 3.9 15.7 83.8 83.8 0 0 0 34.5 11.5V240c0 8.8 7.8 16 17.4 16h17.4c9.6 0 17.4-7.2 17.4-16V222.4c32.9-3.6 57.8-31 53.5-63-3.2-23-22.5-41.3-46.6-47.7L282.7 97.4a8.6 8.6 0 0 1 -6.6-8.1c0-4.6 4.1-8.4 9.1-8.4h35.6A30 30 0 0 1 332 83.1c5.2 2.2 11.3 1.7 15.3-2l19-17.5A11.3 11.3 0 0 0 368.5 61a11.4 11.4 0 0 0 -3.8-15.8 83.8 83.8 0 0 0 -34.5-11.5V16c0-8.8-7.8-16-17.4-16H295.4C285.8 0 278 7.2 278 16V33.6c-32.9 3.6-57.9 31-53.5 63C227.6 119.6 247 137.9 271.1 144.3zM565.3 328.1c-11.8-10.7-30.2-10-42.6 0L430.3 402a63.6 63.6 0 0 1 -40 14H272a16 16 0 0 1 0-32h78.3c15.9 0 30.7-10.9 33.3-26.6a31.2 31.2 0 0 0 .5-5.5A32 32 0 0 0 352 320H192a117.7 117.7 0 0 0 -74.1 26.3L71.4 384H16A16 16 0 0 0 0 400v96a16 16 0 0 0 16 16H372.8a64 64 0 0 0 40-14L564 377a32 32 0 0 0 1.3-48.9z"/></svg>
