<?xml version="1.0" encoding="iso-8859-1"?>
<!-- Uploaded to: SVG Repo, www.svgrepo.com, Generator: SVG Repo Mixer Tools -->
<svg height="50" width="50" version="1.1" id="Capa_1" xmlns="http://www.w3.org/2000/svg" xmlns:xlink="http://www.w3.org/1999/xlink"
	 viewBox="0 0 464 464" xml:space="preserve">
<g>
	<path style="fill:#FFEBE1;" d="M392,0H72c-8.837,0-16,7.164-16,16v376h56c8.837,0,16,7.164,16,16v56h264c8.837,0,16-7.164,16-16V16
		C408,7.164,400.837,0,392,0z M168,56h128c4.418,0,8,3.582,8,8s-3.582,8-8,8H168c-4.418,0-8-3.582-8-8S163.582,56,168,56z M152,88
		h160c4.418,0,8,3.582,8,8s-3.582,8-8,8H152c-4.418,0-8-3.582-8-8S147.582,88,152,88z M232,376c0,4.418-3.582,8-8,8h-72
		c-4.418,0-8-3.582-8-8v0c0-4.418,3.582-8,8-8h72C228.418,368,232,371.582,232,376L232,376z M224,352h-72c-4.418,0-8-3.582-8-8
		s3.582-8,8-8h72c4.418,0,8,3.582,8,8S228.418,352,224,352z M308,401.231c-20.862-9.958-44-34.367-44-54.675
		C264,331.89,275.548,320,289.793,320c7.107,0,13.541,2.961,18.207,7.749c4.665-4.788,11.1-7.749,18.207-7.749
		C340.452,320,352,331.89,352,346.556C352,366.864,328.862,391.272,308,401.231z M344,280H120c-4.418,0-8-3.582-8-8s3.582-8,8-8h224
		c4.418,0,8,3.582,8,8S348.418,280,344,280z M344,248H120c-4.418,0-8-3.582-8-8s3.582-8,8-8h224c4.418,0,8,3.582,8,8
		S348.418,248,344,248z M344,216H120c-4.418,0-8-3.582-8-8c0-4.418,3.582-8,8-8h224c4.418,0,8,3.582,8,8
		C352,212.418,348.418,216,344,216z M344,184H120c-4.418,0-8-3.582-8-8s3.582-8,8-8h224c4.418,0,8,3.582,8,8S348.418,184,344,184z
		 M344,152H120c-4.418,0-8-3.582-8-8c0-4.418,3.582-8,8-8h224c4.418,0,8,3.582,8,8C352,148.418,348.418,152,344,152z"/>
	<path style="fill:#CDAAA0;" d="M168,72h128c4.418,0,8-3.582,8-8s-3.582-8-8-8H168c-4.418,0-8,3.582-8,8S163.582,72,168,72z"/>
	<path style="fill:#CDAAA0;" d="M152,104h160c4.418,0,8-3.582,8-8s-3.582-8-8-8H152c-4.418,0-8,3.582-8,8S147.582,104,152,104z"/>
	<path style="fill:#AF9691;" d="M344,136H120c-4.418,0-8,3.582-8,8c0,4.418,3.582,8,8,8h224c4.418,0,8-3.582,8-8
		C352,139.582,348.418,136,344,136z"/>
	<path style="fill:#AF9691;" d="M344,168H120c-4.418,0-8,3.582-8,8s3.582,8,8,8h224c4.418,0,8-3.582,8-8S348.418,168,344,168z"/>
	<path style="fill:#AF9691;" d="M344,200H120c-4.418,0-8,3.582-8,8c0,4.418,3.582,8,8,8h224c4.418,0,8-3.582,8-8
		C352,203.582,348.418,200,344,200z"/>
	<path style="fill:#AF9691;" d="M344,232H120c-4.418,0-8,3.582-8,8s3.582,8,8,8h224c4.418,0,8-3.582,8-8S348.418,232,344,232z"/>
	<path style="fill:#AF9691;" d="M344,264H120c-4.418,0-8,3.582-8,8s3.582,8,8,8h224c4.418,0,8-3.582,8-8S348.418,264,344,264z"/>
	<path style="fill:#CDAAA0;" d="M224,336h-72c-4.418,0-8,3.582-8,8s3.582,8,8,8h72c4.418,0,8-3.582,8-8S228.418,336,224,336z"/>
	<path style="fill:#CDAAA0;" d="M224,368h-72c-4.418,0-8,3.582-8,8v0c0,4.418,3.582,8,8,8h72c4.418,0,8-3.582,8-8v0
		C232,371.582,228.418,368,224,368z"/>
	<path style="fill:#D2504B;" d="M326.207,320c-7.107,0-13.541,2.961-18.207,7.749c-4.665-4.788-11.1-7.749-18.207-7.749
		C275.548,320,264,331.89,264,346.556c0,20.308,23.138,44.716,44,54.675c20.862-9.958,44-34.367,44-54.675
		C352,331.89,340.452,320,326.207,320z"/>
	<path style="fill:#FFE1CD;" d="M112,392H56l72,72v-56C128,399.164,120.837,392,112,392z"/>
</g>
</svg>